<mxfile host="app.diagrams.net" agent="Mozilla/5.0 (Windows NT 10.0; Win64; x64) AppleWebKit/537.36 (KHTML, like Gecko) Chrome/133.0.0.0 Safari/537.36" version="26.1.0">
  <diagram id="R2lEEEUBdFMjLlhIrx00" name="Page-1">
    <mxGraphModel dx="2693" dy="1846" grid="1" gridSize="10" guides="1" tooltips="1" connect="1" arrows="1" fold="1" page="1" pageScale="1" pageWidth="850" pageHeight="1100" math="0" shadow="0" extFonts="Permanent Marker^https://fonts.googleapis.com/css?family=Permanent+Marker">
      <root>
        <mxCell id="0" />
        <mxCell id="1" parent="0" />
        <mxCell id="Eb9sVpVR9ZOjH9OXoe6D-1" value="&lt;font style=&quot;font-size: 14px;&quot;&gt;&lt;b&gt;Hotel&lt;/b&gt;&lt;/font&gt;" style="rounded=0;whiteSpace=wrap;html=1;" vertex="1" parent="1">
          <mxGeometry x="80" y="120" width="120" height="60" as="geometry" />
        </mxCell>
        <mxCell id="Eb9sVpVR9ZOjH9OXoe6D-3" value="&lt;font style=&quot;font-size: 14px;&quot;&gt;&lt;b&gt;Quarto&lt;/b&gt;&lt;/font&gt;" style="whiteSpace=wrap;html=1;" vertex="1" parent="1">
          <mxGeometry x="425" y="120" width="120" height="60" as="geometry" />
        </mxCell>
        <mxCell id="Eb9sVpVR9ZOjH9OXoe6D-5" value="&lt;font style=&quot;font-size: 14px;&quot;&gt;&lt;b&gt;Funcionário&lt;/b&gt;&lt;/font&gt;" style="whiteSpace=wrap;html=1;align=center;" vertex="1" parent="1">
          <mxGeometry x="80" y="300" width="120" height="50" as="geometry" />
        </mxCell>
        <mxCell id="Eb9sVpVR9ZOjH9OXoe6D-10" value="" style="endArrow=none;html=1;rounded=0;exitX=0.5;exitY=1;exitDx=0;exitDy=0;entryX=0.5;entryY=0;entryDx=0;entryDy=0;" edge="1" parent="1" source="Eb9sVpVR9ZOjH9OXoe6D-1" target="Eb9sVpVR9ZOjH9OXoe6D-5">
          <mxGeometry relative="1" as="geometry">
            <mxPoint x="130" y="210" as="sourcePoint" />
            <mxPoint x="290" y="210" as="targetPoint" />
          </mxGeometry>
        </mxCell>
        <mxCell id="Eb9sVpVR9ZOjH9OXoe6D-6" value="emprega" style="shape=rhombus;perimeter=rhombusPerimeter;whiteSpace=wrap;html=1;align=center;" vertex="1" parent="1">
          <mxGeometry x="80" y="210" width="120" height="60" as="geometry" />
        </mxCell>
        <mxCell id="Eb9sVpVR9ZOjH9OXoe6D-11" value="" style="endArrow=none;html=1;rounded=0;entryX=0;entryY=0.5;entryDx=0;entryDy=0;" edge="1" parent="1" target="Eb9sVpVR9ZOjH9OXoe6D-3">
          <mxGeometry relative="1" as="geometry">
            <mxPoint x="200" y="149.5" as="sourcePoint" />
            <mxPoint x="360" y="149.5" as="targetPoint" />
          </mxGeometry>
        </mxCell>
        <mxCell id="Eb9sVpVR9ZOjH9OXoe6D-2" value="possui" style="shape=rhombus;perimeter=rhombusPerimeter;whiteSpace=wrap;html=1;align=center;" vertex="1" parent="1">
          <mxGeometry x="260" y="120" width="120" height="60" as="geometry" />
        </mxCell>
        <mxCell id="Eb9sVpVR9ZOjH9OXoe6D-16" value="&lt;font style=&quot;font-size: 14px;&quot;&gt;&lt;b&gt;Reserva&lt;/b&gt;&lt;/font&gt;" style="whiteSpace=wrap;html=1;align=center;" vertex="1" parent="1">
          <mxGeometry x="220" y="384.5" width="100" height="50" as="geometry" />
        </mxCell>
        <mxCell id="Eb9sVpVR9ZOjH9OXoe6D-17" value="&lt;font style=&quot;font-size: 14px;&quot;&gt;&lt;b&gt;Hóspede&lt;/b&gt;&lt;/font&gt;" style="whiteSpace=wrap;html=1;align=center;" vertex="1" parent="1">
          <mxGeometry x="520" y="381.25" width="120" height="52" as="geometry" />
        </mxCell>
        <mxCell id="Eb9sVpVR9ZOjH9OXoe6D-19" value="&lt;font style=&quot;font-size: 14px;&quot;&gt;&lt;b&gt;Pagamento&lt;/b&gt;&lt;/font&gt;" style="whiteSpace=wrap;html=1;align=center;" vertex="1" parent="1">
          <mxGeometry x="370" y="495.5" width="110" height="50" as="geometry" />
        </mxCell>
        <mxCell id="Eb9sVpVR9ZOjH9OXoe6D-20" value="" style="endArrow=none;html=1;rounded=0;entryX=0;entryY=0.5;entryDx=0;entryDy=0;" edge="1" parent="1" source="Eb9sVpVR9ZOjH9OXoe6D-18" target="Eb9sVpVR9ZOjH9OXoe6D-19">
          <mxGeometry relative="1" as="geometry">
            <mxPoint x="270" y="330" as="sourcePoint" />
            <mxPoint x="430" y="330" as="targetPoint" />
          </mxGeometry>
        </mxCell>
        <mxCell id="Eb9sVpVR9ZOjH9OXoe6D-21" value="Realiza" style="shape=rhombus;perimeter=rhombusPerimeter;whiteSpace=wrap;html=1;align=center;" vertex="1" parent="1">
          <mxGeometry x="92.5" y="380" width="95" height="54.5" as="geometry" />
        </mxCell>
        <mxCell id="Eb9sVpVR9ZOjH9OXoe6D-22" value="" style="endArrow=none;html=1;rounded=0;entryX=0.5;entryY=0;entryDx=0;entryDy=0;exitX=0.5;exitY=1;exitDx=0;exitDy=0;" edge="1" parent="1" source="Eb9sVpVR9ZOjH9OXoe6D-16" target="Eb9sVpVR9ZOjH9OXoe6D-18">
          <mxGeometry relative="1" as="geometry">
            <mxPoint x="400" y="346" as="sourcePoint" />
            <mxPoint x="405" y="480" as="targetPoint" />
          </mxGeometry>
        </mxCell>
        <mxCell id="Eb9sVpVR9ZOjH9OXoe6D-18" value="Gera" style="shape=rhombus;perimeter=rhombusPerimeter;whiteSpace=wrap;html=1;align=center;" vertex="1" parent="1">
          <mxGeometry x="210" y="491" width="120" height="59" as="geometry" />
        </mxCell>
        <mxCell id="Eb9sVpVR9ZOjH9OXoe6D-25" value="Pede" style="shape=rhombus;perimeter=rhombusPerimeter;whiteSpace=wrap;html=1;align=center;" vertex="1" parent="1">
          <mxGeometry x="370" y="380" width="95" height="54.5" as="geometry" />
        </mxCell>
        <mxCell id="Eb9sVpVR9ZOjH9OXoe6D-27" value="" style="endArrow=none;html=1;rounded=0;exitX=0.5;exitY=1;exitDx=0;exitDy=0;" edge="1" parent="1" source="Eb9sVpVR9ZOjH9OXoe6D-5" target="Eb9sVpVR9ZOjH9OXoe6D-21">
          <mxGeometry relative="1" as="geometry">
            <mxPoint x="190" y="320" as="sourcePoint" />
            <mxPoint x="350" y="320" as="targetPoint" />
          </mxGeometry>
        </mxCell>
        <mxCell id="Eb9sVpVR9ZOjH9OXoe6D-28" value="" style="endArrow=none;html=1;rounded=0;exitX=1;exitY=0.5;exitDx=0;exitDy=0;entryX=0;entryY=0.5;entryDx=0;entryDy=0;" edge="1" parent="1" source="Eb9sVpVR9ZOjH9OXoe6D-21" target="Eb9sVpVR9ZOjH9OXoe6D-16">
          <mxGeometry relative="1" as="geometry">
            <mxPoint x="190" y="310" as="sourcePoint" />
            <mxPoint x="350" y="310" as="targetPoint" />
          </mxGeometry>
        </mxCell>
        <mxCell id="Eb9sVpVR9ZOjH9OXoe6D-29" value="" style="endArrow=none;html=1;rounded=0;exitX=0;exitY=0.5;exitDx=0;exitDy=0;" edge="1" parent="1" source="Eb9sVpVR9ZOjH9OXoe6D-17" target="Eb9sVpVR9ZOjH9OXoe6D-25">
          <mxGeometry relative="1" as="geometry">
            <mxPoint x="330" y="320" as="sourcePoint" />
            <mxPoint x="490" y="320" as="targetPoint" />
          </mxGeometry>
        </mxCell>
        <mxCell id="Eb9sVpVR9ZOjH9OXoe6D-31" value="" style="endArrow=none;html=1;rounded=0;exitX=1;exitY=0.5;exitDx=0;exitDy=0;" edge="1" parent="1" source="Eb9sVpVR9ZOjH9OXoe6D-16" target="Eb9sVpVR9ZOjH9OXoe6D-25">
          <mxGeometry relative="1" as="geometry">
            <mxPoint x="330" y="409" as="sourcePoint" />
            <mxPoint x="370" y="410" as="targetPoint" />
          </mxGeometry>
        </mxCell>
        <mxCell id="Eb9sVpVR9ZOjH9OXoe6D-34" value="&lt;font color=&quot;#ff3333&quot;&gt;&lt;b&gt;1 : n&lt;/b&gt;&lt;/font&gt;" style="text;html=1;align=center;verticalAlign=middle;resizable=0;points=[];autosize=1;strokeColor=none;fillColor=none;" vertex="1" parent="1">
          <mxGeometry x="295" y="180" width="50" height="30" as="geometry" />
        </mxCell>
        <mxCell id="Eb9sVpVR9ZOjH9OXoe6D-35" value="&lt;font color=&quot;#ff3333&quot;&gt;&lt;b&gt;1 : n&lt;/b&gt;&lt;/font&gt;" style="text;html=1;align=center;verticalAlign=middle;resizable=0;points=[];autosize=1;strokeColor=none;fillColor=none;" vertex="1" parent="1">
          <mxGeometry x="30" y="225" width="50" height="30" as="geometry" />
        </mxCell>
        <mxCell id="Eb9sVpVR9ZOjH9OXoe6D-36" value="&lt;font style=&quot;color: rgb(255, 51, 51);&quot;&gt;&lt;b&gt;1:1&lt;/b&gt;&lt;/font&gt;" style="text;html=1;align=center;verticalAlign=middle;resizable=0;points=[];autosize=1;strokeColor=none;fillColor=none;" vertex="1" parent="1">
          <mxGeometry x="250" y="550" width="40" height="30" as="geometry" />
        </mxCell>
        <mxCell id="Eb9sVpVR9ZOjH9OXoe6D-37" value="Contém" style="shape=associativeEntity;whiteSpace=wrap;html=1;align=center;" vertex="1" parent="1">
          <mxGeometry x="315" y="260" width="140" height="60" as="geometry" />
        </mxCell>
        <mxCell id="Eb9sVpVR9ZOjH9OXoe6D-38" value="" style="endArrow=none;html=1;rounded=0;exitX=0.5;exitY=1;exitDx=0;exitDy=0;entryX=1;entryY=0;entryDx=0;entryDy=0;" edge="1" parent="1" source="Eb9sVpVR9ZOjH9OXoe6D-37" target="Eb9sVpVR9ZOjH9OXoe6D-16">
          <mxGeometry relative="1" as="geometry">
            <mxPoint x="360" y="330" as="sourcePoint" />
            <mxPoint x="330" y="400" as="targetPoint" />
            <Array as="points" />
          </mxGeometry>
        </mxCell>
        <mxCell id="Eb9sVpVR9ZOjH9OXoe6D-39" value="&lt;span style=&quot;text-wrap-mode: wrap;&quot;&gt;Reserva_Quarto&lt;/span&gt;" style="text;html=1;align=center;verticalAlign=middle;resizable=0;points=[];autosize=1;strokeColor=none;fillColor=none;" vertex="1" parent="1">
          <mxGeometry x="350" y="234" width="110" height="30" as="geometry" />
        </mxCell>
        <mxCell id="Eb9sVpVR9ZOjH9OXoe6D-40" value="" style="endArrow=none;html=1;rounded=0;entryX=1;entryY=0.5;entryDx=0;entryDy=0;" edge="1" parent="1" target="Eb9sVpVR9ZOjH9OXoe6D-37">
          <mxGeometry relative="1" as="geometry">
            <mxPoint x="490" y="180" as="sourcePoint" />
            <mxPoint x="480" y="280" as="targetPoint" />
            <Array as="points">
              <mxPoint x="490" y="290" />
            </Array>
          </mxGeometry>
        </mxCell>
        <mxCell id="Eb9sVpVR9ZOjH9OXoe6D-41" value="&lt;font color=&quot;#ff3333&quot;&gt;&lt;b&gt;n : 1&lt;/b&gt;&lt;/font&gt;" style="text;html=1;align=center;verticalAlign=middle;resizable=0;points=[];autosize=1;strokeColor=none;fillColor=none;" vertex="1" parent="1">
          <mxGeometry x="392.5" y="351.25" width="50" height="30" as="geometry" />
        </mxCell>
        <mxCell id="Eb9sVpVR9ZOjH9OXoe6D-42" value="&lt;font color=&quot;#ff3333&quot;&gt;&lt;b&gt;1 : n&lt;/b&gt;&lt;/font&gt;" style="text;html=1;align=center;verticalAlign=middle;resizable=0;points=[];autosize=1;strokeColor=none;fillColor=none;" vertex="1" parent="1">
          <mxGeometry x="115" y="433.25" width="50" height="30" as="geometry" />
        </mxCell>
        <mxCell id="Eb9sVpVR9ZOjH9OXoe6D-43" value="&lt;font color=&quot;#ff3333&quot;&gt;&lt;b&gt;1 : n&lt;/b&gt;&lt;/font&gt;" style="text;html=1;align=center;verticalAlign=middle;resizable=0;points=[];autosize=1;strokeColor=none;fillColor=none;" vertex="1" parent="1">
          <mxGeometry x="320" y="318" width="50" height="30" as="geometry" />
        </mxCell>
        <mxCell id="Eb9sVpVR9ZOjH9OXoe6D-44" value="&lt;font color=&quot;#ff3333&quot;&gt;&lt;b&gt;1 : n&lt;/b&gt;&lt;/font&gt;" style="text;html=1;align=center;verticalAlign=middle;resizable=0;points=[];autosize=1;strokeColor=none;fillColor=none;" vertex="1" parent="1">
          <mxGeometry x="442.5" y="180" width="50" height="30" as="geometry" />
        </mxCell>
        <mxCell id="Eb9sVpVR9ZOjH9OXoe6D-56" value="&lt;ul&gt;&lt;li&gt;&lt;b&gt;&lt;span style=&quot;background-color: transparent; color: light-dark(rgb(0, 0, 0), rgb(255, 255, 255));&quot;&gt;ID_Hotel&lt;/span&gt;&lt;span style=&quot;background-color: transparent; color: light-dark(rgb(0, 0, 0), rgb(255, 255, 255));&quot;&gt; (PK)&lt;/span&gt;&lt;/b&gt;&lt;/li&gt;&lt;li&gt;&lt;span style=&quot;background-color: transparent; color: light-dark(rgb(0, 0, 0), rgb(255, 255, 255));&quot;&gt;Nome&lt;/span&gt;&lt;/li&gt;&lt;li&gt;&lt;span style=&quot;background-color: transparent; color: light-dark(rgb(0, 0, 0), rgb(255, 255, 255));&quot;&gt;Categoria&lt;/span&gt;&lt;/li&gt;&lt;li&gt;&lt;span style=&quot;background-color: transparent; color: light-dark(rgb(0, 0, 0), rgb(255, 255, 255));&quot;&gt;Telefone&lt;/span&gt;&lt;/li&gt;&lt;li&gt;&lt;span style=&quot;background-color: transparent; color: light-dark(rgb(0, 0, 0), rgb(255, 255, 255));&quot;&gt;E-mail&lt;/span&gt;&lt;/li&gt;&lt;li&gt;&lt;span style=&quot;background-color: transparent; color: light-dark(rgb(0, 0, 0), rgb(255, 255, 255));&quot;&gt;Endereço&lt;/span&gt;&lt;/li&gt;&lt;/ul&gt;&lt;h4 data-end=&quot;599&quot; data-start=&quot;579&quot;&gt;&lt;/h4&gt;&lt;div&gt;&lt;br&gt;&lt;/div&gt;" style="text;html=1;align=left;verticalAlign=middle;resizable=0;points=[];autosize=1;strokeColor=none;fillColor=none;" vertex="1" parent="1">
          <mxGeometry x="60" y="-95" width="140" height="140" as="geometry" />
        </mxCell>
        <mxCell id="Eb9sVpVR9ZOjH9OXoe6D-57" value="&lt;ul&gt;&lt;li&gt;&lt;span style=&quot;background-color: transparent; color: light-dark(rgb(0, 0, 0), rgb(255, 255, 255));&quot;&gt;Rua&lt;/span&gt;&lt;/li&gt;&lt;li&gt;&lt;span style=&quot;background-color: transparent; color: light-dark(rgb(0, 0, 0), rgb(255, 255, 255));&quot;&gt;Número&lt;/span&gt;&lt;/li&gt;&lt;li&gt;&lt;span style=&quot;background-color: transparent; color: light-dark(rgb(0, 0, 0), rgb(255, 255, 255));&quot;&gt;Complemento&lt;/span&gt;&lt;/li&gt;&lt;li&gt;&lt;span style=&quot;background-color: transparent; color: light-dark(rgb(0, 0, 0), rgb(255, 255, 255));&quot;&gt;Bairro&lt;/span&gt;&lt;/li&gt;&lt;li&gt;&lt;span style=&quot;background-color: transparent; color: light-dark(rgb(0, 0, 0), rgb(255, 255, 255));&quot;&gt;CEP&lt;/span&gt;&lt;/li&gt;&lt;li&gt;&lt;span style=&quot;background-color: transparent; color: light-dark(rgb(0, 0, 0), rgb(255, 255, 255));&quot;&gt;Cidade&lt;/span&gt;&lt;/li&gt;&lt;li&gt;&lt;span style=&quot;background-color: transparent; color: light-dark(rgb(0, 0, 0), rgb(255, 255, 255));&quot;&gt;Estado&lt;/span&gt;&lt;/li&gt;&lt;/ul&gt;" style="text;html=1;align=left;verticalAlign=middle;resizable=0;points=[];autosize=1;strokeColor=none;fillColor=none;" vertex="1" parent="1">
          <mxGeometry x="140" y="-20" width="140" height="140" as="geometry" />
        </mxCell>
        <mxCell id="Eb9sVpVR9ZOjH9OXoe6D-58" value="" style="line;strokeWidth=2;direction=south;html=1;" vertex="1" parent="1">
          <mxGeometry x="77.5" y="-70" width="10" height="190" as="geometry" />
        </mxCell>
        <mxCell id="Eb9sVpVR9ZOjH9OXoe6D-61" value="" style="line;strokeWidth=2;direction=south;html=1;" vertex="1" parent="1">
          <mxGeometry x="155" width="10" height="100" as="geometry" />
        </mxCell>
        <mxCell id="Eb9sVpVR9ZOjH9OXoe6D-62" value="" style="line;strokeWidth=2;direction=south;html=1;" vertex="1" parent="1">
          <mxGeometry x="425" y="10" width="10" height="110" as="geometry" />
        </mxCell>
        <mxCell id="Eb9sVpVR9ZOjH9OXoe6D-63" value="&lt;ul&gt;&lt;li data-end=&quot;620&quot; data-start=&quot;600&quot;&gt;&lt;b&gt;ID_Quarto (PK)&lt;/b&gt;&lt;/li&gt;&lt;li data-end=&quot;640&quot; data-start=&quot;621&quot;&gt;Número_Leitos&lt;/li&gt;&lt;li data-end=&quot;675&quot; data-start=&quot;641&quot;&gt;Tipo (Standard, Luxo, Suíte)&lt;/li&gt;&lt;li data-end=&quot;694&quot; data-start=&quot;676&quot;&gt;Preço_Diária&lt;/li&gt;&lt;li data-end=&quot;741&quot; data-start=&quot;695&quot;&gt;Status (Disponível, Ocupado, Manutenção)&lt;/li&gt;&lt;li data-end=&quot;787&quot; data-start=&quot;742&quot;&gt;ID_Hotel (FK)&amp;nbsp;&lt;/li&gt;&lt;/ul&gt;" style="text;html=1;align=left;verticalAlign=middle;resizable=0;points=[];autosize=1;strokeColor=none;fillColor=none;" vertex="1" parent="1">
          <mxGeometry x="410" y="-10" width="290" height="120" as="geometry" />
        </mxCell>
        <mxCell id="Eb9sVpVR9ZOjH9OXoe6D-64" value="" style="line;strokeWidth=2;direction=south;html=1;" vertex="1" parent="1">
          <mxGeometry x="535" y="200" width="10" height="181.25" as="geometry" />
        </mxCell>
        <mxCell id="Eb9sVpVR9ZOjH9OXoe6D-65" value="" style="line;strokeWidth=2;direction=south;html=1;" vertex="1" parent="1">
          <mxGeometry x="380" y="545.5" width="10" height="84.5" as="geometry" />
        </mxCell>
        <mxCell id="Eb9sVpVR9ZOjH9OXoe6D-66" value="&lt;li data-end=&quot;1237&quot; data-start=&quot;1214&quot;&gt;&lt;b&gt;ID_Pagamento (PK)&lt;/b&gt;&lt;/li&gt;&lt;li data-end=&quot;1283&quot; data-start=&quot;1238&quot;&gt;Forma_Pagamento (Cartão, Pix, Dinheiro)&lt;/li&gt;&lt;li data-end=&quot;1304&quot; data-start=&quot;1284&quot;&gt;Data_Pagamento&lt;/li&gt;&lt;li data-end=&quot;1322&quot; data-start=&quot;1305&quot;&gt;Valor_Total&lt;/li&gt;&lt;li data-end=&quot;1352&quot; data-start=&quot;1323&quot;&gt;Status (Pago, Pendente)&lt;/li&gt;&lt;li data-end=&quot;1402&quot; data-start=&quot;1353&quot;&gt;ID_Reserva (FK)&lt;/li&gt;" style="text;html=1;align=left;verticalAlign=middle;resizable=0;points=[];autosize=1;strokeColor=none;fillColor=none;" vertex="1" parent="1">
          <mxGeometry x="390" y="545.5" width="270" height="100" as="geometry" />
        </mxCell>
        <mxCell id="Eb9sVpVR9ZOjH9OXoe6D-69" value="&lt;ul&gt;&lt;li&gt;&lt;span style=&quot;background-color: transparent; color: light-dark(rgb(0, 0, 0), rgb(255, 255, 255));&quot;&gt;Rua&lt;/span&gt;&lt;/li&gt;&lt;li&gt;&lt;span style=&quot;background-color: transparent; color: light-dark(rgb(0, 0, 0), rgb(255, 255, 255));&quot;&gt;Número&lt;/span&gt;&lt;/li&gt;&lt;li&gt;&lt;span style=&quot;background-color: transparent; color: light-dark(rgb(0, 0, 0), rgb(255, 255, 255));&quot;&gt;Complemento&lt;/span&gt;&lt;/li&gt;&lt;li&gt;&lt;span style=&quot;background-color: transparent; color: light-dark(rgb(0, 0, 0), rgb(255, 255, 255));&quot;&gt;Bairro&lt;/span&gt;&lt;/li&gt;&lt;li&gt;&lt;span style=&quot;background-color: transparent; color: light-dark(rgb(0, 0, 0), rgb(255, 255, 255));&quot;&gt;CEP&lt;/span&gt;&lt;/li&gt;&lt;li&gt;&lt;span style=&quot;background-color: transparent; color: light-dark(rgb(0, 0, 0), rgb(255, 255, 255));&quot;&gt;Cidade&lt;/span&gt;&lt;/li&gt;&lt;li&gt;&lt;span style=&quot;background-color: transparent; color: light-dark(rgb(0, 0, 0), rgb(255, 255, 255));&quot;&gt;Estado&lt;/span&gt;&lt;/li&gt;&lt;/ul&gt;" style="text;html=1;align=left;verticalAlign=middle;resizable=0;points=[];autosize=1;strokeColor=none;fillColor=none;" vertex="1" parent="1">
          <mxGeometry x="610" y="244.5" width="140" height="140" as="geometry" />
        </mxCell>
        <mxCell id="Eb9sVpVR9ZOjH9OXoe6D-71" value="" style="line;strokeWidth=2;direction=south;html=1;" vertex="1" parent="1">
          <mxGeometry x="620" y="268" width="10" height="92" as="geometry" />
        </mxCell>
        <mxCell id="Eb9sVpVR9ZOjH9OXoe6D-72" value="&lt;ul&gt;&lt;li&gt;&lt;b&gt;&lt;span style=&quot;background-color: transparent; color: light-dark(rgb(0, 0, 0), rgb(255, 255, 255));&quot;&gt;CPF (PK)&lt;/span&gt;&lt;/b&gt;&lt;/li&gt;&lt;li&gt;&lt;span style=&quot;background-color: transparent; color: light-dark(rgb(0, 0, 0), rgb(255, 255, 255));&quot;&gt;Nome&lt;/span&gt;&lt;/li&gt;&lt;li&gt;&lt;span style=&quot;background-color: transparent; color: light-dark(rgb(0, 0, 0), rgb(255, 255, 255));&quot;&gt;Telefone&lt;/span&gt;&lt;/li&gt;&lt;li&gt;&lt;span style=&quot;background-color: transparent; color: light-dark(rgb(0, 0, 0), rgb(255, 255, 255));&quot;&gt;E-mail&lt;/span&gt;&lt;/li&gt;&lt;li&gt;&lt;span style=&quot;background-color: transparent; color: light-dark(rgb(0, 0, 0), rgb(255, 255, 255));&quot;&gt;Endereço&lt;/span&gt;&lt;/li&gt;&lt;/ul&gt;&lt;h4 data-end=&quot;599&quot; data-start=&quot;579&quot;&gt;&lt;/h4&gt;&lt;div&gt;&lt;br&gt;&lt;/div&gt;" style="text;html=1;align=left;verticalAlign=middle;resizable=0;points=[];autosize=1;strokeColor=none;fillColor=none;" vertex="1" parent="1">
          <mxGeometry x="520" y="188" width="120" height="130" as="geometry" />
        </mxCell>
        <mxCell id="Eb9sVpVR9ZOjH9OXoe6D-73" value="" style="line;strokeWidth=2;direction=south;html=1;" vertex="1" parent="1">
          <mxGeometry x="220" y="330" width="10" height="54.5" as="geometry" />
        </mxCell>
        <mxCell id="Eb9sVpVR9ZOjH9OXoe6D-74" value="&lt;li data-end=&quot;999&quot; data-start=&quot;978&quot;&gt;&lt;b&gt;&lt;font style=&quot;font-size: 10px;&quot;&gt;ID_Reserva (PK)&lt;/font&gt;&lt;/b&gt;&lt;/li&gt;&lt;li data-end=&quot;1018&quot; data-start=&quot;1000&quot;&gt;&lt;font style=&quot;font-size: 10px;&quot;&gt;Data_Entrada&lt;/font&gt;&lt;/li&gt;&lt;li data-end=&quot;1035&quot; data-start=&quot;1019&quot;&gt;&lt;font style=&quot;font-size: 10px;&quot;&gt;Data_Saída&lt;/font&gt;&lt;/li&gt;" style="text;html=1;align=left;verticalAlign=middle;resizable=0;points=[];autosize=1;strokeColor=none;fillColor=none;" vertex="1" parent="1">
          <mxGeometry x="230" y="324.5" width="120" height="60" as="geometry" />
        </mxCell>
        <mxCell id="Eb9sVpVR9ZOjH9OXoe6D-76" value="" style="line;strokeWidth=2;direction=south;html=1;" vertex="1" parent="1">
          <mxGeometry x="280" y="435.5" width="10" height="57.75" as="geometry" />
        </mxCell>
        <mxCell id="Eb9sVpVR9ZOjH9OXoe6D-77" value="&lt;li data-end=&quot;1078&quot; data-start=&quot;1036&quot;&gt;&lt;font style=&quot;font-size: 10px;&quot;&gt;Status (Ativa, Cancelada, Concluída)&lt;/font&gt;&lt;/li&gt;&lt;li data-end=&quot;1129&quot; data-start=&quot;1079&quot;&gt;&lt;font style=&quot;font-size: 10px;&quot;&gt;CPF_Hóspede (FK)&lt;/font&gt;&lt;/li&gt;&lt;li data-end=&quot;1188&quot; data-start=&quot;1130&quot;&gt;&lt;font style=&quot;font-size: 10px;&quot;&gt;CPF_Funcionario (FK)&amp;nbsp;&lt;/font&gt;&lt;/li&gt;" style="text;html=1;align=left;verticalAlign=middle;resizable=0;points=[];autosize=1;strokeColor=none;fillColor=none;" vertex="1" parent="1">
          <mxGeometry x="290" y="433.25" width="200" height="60" as="geometry" />
        </mxCell>
        <mxCell id="Eb9sVpVR9ZOjH9OXoe6D-80" value="" style="line;strokeWidth=2;html=1;" vertex="1" parent="1">
          <mxGeometry x="-60" y="310" width="140" height="10" as="geometry" />
        </mxCell>
        <mxCell id="Eb9sVpVR9ZOjH9OXoe6D-81" value="&lt;li data-end=&quot;282&quot; data-start=&quot;268&quot;&gt;&lt;b&gt;CPF (PK)&lt;/b&gt;&lt;/li&gt;&lt;li data-end=&quot;293&quot; data-start=&quot;283&quot;&gt;Nome&lt;/li&gt;&lt;li data-end=&quot;308&quot; data-start=&quot;294&quot;&gt;Telefone&lt;/li&gt;&lt;li data-end=&quot;321&quot; data-start=&quot;309&quot;&gt;E-mail&lt;/li&gt;&lt;li data-end=&quot;333&quot; data-start=&quot;322&quot;&gt;Login&lt;/li&gt;&lt;li data-end=&quot;345&quot; data-start=&quot;334&quot;&gt;Senha&lt;/li&gt;&lt;li data-end=&quot;391&quot; data-start=&quot;346&quot;&gt;ID_Hotel (FK)&amp;nbsp;&lt;/li&gt;" style="text;html=1;align=left;verticalAlign=middle;resizable=0;points=[];autosize=1;strokeColor=none;fillColor=none;" vertex="1" parent="1">
          <mxGeometry x="-40" y="323.25" width="120" height="110" as="geometry" />
        </mxCell>
        <mxCell id="Eb9sVpVR9ZOjH9OXoe6D-82" value="" style="line;strokeWidth=2;direction=south;html=1;" vertex="1" parent="1">
          <mxGeometry x="-60" y="310" width="10" height="120" as="geometry" />
        </mxCell>
        <mxCell id="Eb9sVpVR9ZOjH9OXoe6D-83" value="" style="line;strokeWidth=2;direction=south;html=1;" vertex="1" parent="1">
          <mxGeometry x="230" y="220" width="10" height="58" as="geometry" />
        </mxCell>
        <mxCell id="Eb9sVpVR9ZOjH9OXoe6D-84" value="&lt;li style=&quot;text-align: left;&quot; data-end=&quot;1547&quot; data-start=&quot;1494&quot;&gt;&lt;b&gt;&lt;font style=&quot;font-size: 10px;&quot;&gt;ID_Reserva (PK, FK)&lt;/font&gt;&amp;nbsp;&lt;/b&gt;&lt;/li&gt;&lt;li style=&quot;text-align: left;&quot; data-end=&quot;1599&quot; data-start=&quot;1548&quot;&gt;&lt;b&gt;&lt;span style=&quot;font-size: 10px;&quot;&gt;ID_Quarto (PK, FK)&lt;/span&gt;&lt;font&gt;&lt;span style=&quot;font-size: 10px;&quot;&gt;&amp;nbsp;&lt;/span&gt;&lt;/font&gt;&lt;/b&gt;&lt;/li&gt;" style="text;html=1;align=center;verticalAlign=middle;resizable=0;points=[];autosize=1;strokeColor=none;fillColor=none;" vertex="1" parent="1">
          <mxGeometry x="230" y="210" width="140" height="40" as="geometry" />
        </mxCell>
        <mxCell id="Eb9sVpVR9ZOjH9OXoe6D-85" value="" style="line;strokeWidth=2;html=1;" vertex="1" parent="1">
          <mxGeometry x="240" y="270" width="75" height="10" as="geometry" />
        </mxCell>
      </root>
    </mxGraphModel>
  </diagram>
</mxfile>
